<?xml version="1.0" standalone="no"?>
<!DOCTYPE svg PUBLIC "-//W3C//DTD SVG 20010904//EN"
 "http://www.w3.org/TR/2001/REC-SVG-20010904/DTD/svg10.dtd">
<svg version="1.0" xmlns="http://www.w3.org/2000/svg"
 width="1024.000000pt" height="1024.000000pt" viewBox="0 0 1024.000000 1024.000000"
 preserveAspectRatio="xMidYMid meet">

<g transform="translate(0.000000,1024.000000) scale(0.100000,-0.100000)"
fill="#54BE96" stroke="none">
<path d="M6810 9285 c-8 -2 -62 -9 -120 -15 -497 -56 -980 -278 -1336 -614
-126 -118 -149 -136 -174 -136 -13 0 -73 11 -134 24 -192 43 -309 65 -376 71
-36 4 -76 9 -90 11 -73 12 -419 15 -535 5 -436 -38 -872 -179 -1227 -396 -464
-284 -823 -721 -1010 -1227 -55 -152 -114 -367 -133 -493 -22 -150 -27 -197
-30 -340 -4 -128 0 -183 15 -273 22 -126 18 -153 -40 -257 -15 -27 -49 -90
-75 -140 -75 -140 -154 -278 -242 -420 -163 -265 -191 -312 -233 -398 -39 -78
-44 -97 -48 -173 -4 -79 -3 -88 28 -150 68 -139 189 -226 425 -305 55 -19 102
-35 103 -36 2 -1 -8 -42 -23 -91 -50 -172 -32 -274 69 -392 30 -35 44 -60 40
-70 -33 -77 -35 -93 -21 -165 8 -39 36 -118 62 -175 47 -102 48 -104 40 -174
-14 -140 -14 -290 1 -375 41 -230 184 -369 444 -432 81 -20 121 -23 275 -23
99 0 223 6 275 12 52 7 115 15 140 18 25 3 86 12 135 20 163 27 227 18 274
-42 31 -40 48 -116 66 -304 3 -36 12 -117 20 -180 15 -120 41 -339 50 -425 20
-183 33 -225 85 -269 47 -39 115 -50 220 -34 25 3 164 23 310 43 146 19 375
51 510 70 135 19 297 42 360 51 63 8 140 20 170 25 30 5 156 23 280 39 124 17
239 33 255 35 17 2 77 11 135 19 58 8 121 17 140 20 19 3 67 10 105 15 39 6
93 13 120 16 28 4 79 11 115 16 36 6 83 12 105 15 153 19 222 56 268 144 46
87 37 172 -57 545 -112 447 -133 549 -165 800 -64 490 28 845 349 1350 34 55
95 152 135 215 120 193 143 227 159 233 8 3 96 15 195 27 574 66 1040 289
1442 690 244 243 396 467 521 765 118 281 171 560 171 895 0 372 -79 713 -243
1045 -122 246 -251 426 -450 626 -273 274 -611 469 -1002 578 -125 35 -198 50
-373 76 -44 7 -451 15 -475 10z m510 -329 c706 -111 1311 -599 1563 -1261 128
-336 167 -647 127 -1028 -51 -491 -305 -939 -735 -1297 -223 -185 -386 -275
-705 -387 -192 -67 -597 -95 -853 -59 -181 26 -373 83 -562 167 -60 27 -123
49 -139 49 -16 0 -68 -21 -115 -47 -180 -98 -630 -317 -638 -310 -5 6 67 256
123 427 49 145 94 319 94 361 0 17 -15 44 -43 75 -199 224 -332 459 -407 722
-78 273 -103 581 -69 857 7 55 13 102 14 105 1 3 5 25 9 50 46 262 208 613
385 834 117 146 326 333 492 441 383 249 991 374 1459 301z m-2832 -650 c20
-3 78 -10 127 -16 139 -18 365 -66 365 -79 0 -3 -21 -40 -46 -81 -213 -352
-314 -755 -307 -1220 7 -487 159 -944 436 -1312 l67 -90 -16 -61 c-8 -34 -29
-107 -45 -162 -17 -55 -47 -172 -69 -260 -21 -88 -52 -203 -68 -255 -54 -170
-62 -207 -62 -280 0 -68 2 -74 32 -102 32 -30 35 -30 108 -25 68 5 103 15 215
67 11 5 79 34 150 64 72 30 240 109 375 175 134 67 256 121 271 121 15 0 65
-15 112 -34 107 -43 216 -77 381 -116 71 -17 133 -33 137 -36 9 -5 3 -16 -167
-286 -203 -325 -286 -496 -353 -733 -62 -217 -81 -371 -76 -610 7 -315 55
-569 243 -1293 10 -40 16 -75 13 -77 -4 -2 -60 -11 -126 -20 -66 -9 -181 -25
-255 -35 -74 -11 -153 -21 -175 -24 -44 -6 -322 -45 -575 -81 -91 -13 -183
-26 -205 -29 -234 -32 -872 -120 -950 -132 -136 -20 -203 -28 -245 -29 -41 0
-29 -56 -90 430 -22 176 -43 338 -46 360 -27 193 -96 318 -216 397 -106 70
-207 83 -412 53 -343 -49 -607 -61 -741 -32 -86 18 -179 61 -205 95 -32 39
-43 99 -40 212 9 322 9 326 -34 430 -21 52 -41 113 -43 136 -5 38 -2 44 42 85
55 52 75 86 75 129 0 48 -29 89 -82 116 -86 44 -131 93 -144 158 -2 11 8 67
22 124 28 114 27 157 -6 221 -46 90 -115 133 -326 201 -157 50 -189 71 -189
128 0 68 127 297 359 647 172 260 216 337 280 503 42 108 46 175 20 349 -13
83 -15 148 -11 278 4 94 8 179 10 190 3 11 8 43 11 70 4 28 16 88 27 135 133
572 442 992 959 1305 285 172 514 256 875 320 17 3 77 8 135 11 58 4 107 8
109 10 5 4 325 -4 369 -10z"/>
<path d="M5625 8096 c-36 -15 -55 -52 -55 -105 0 -49 25 -80 100 -126 64 -39
104 -92 115 -155 4 -19 8 -159 10 -310 1 -163 7 -295 14 -325 54 -232 171
-401 357 -512 119 -72 284 -114 506 -129 78 -6 97 -10 101 -24 2 -9 2 -147 0
-306 -4 -210 -9 -298 -18 -321 -18 -42 -64 -69 -133 -78 -73 -9 -112 -45 -112
-104 0 -31 7 -49 29 -73 l29 -33 169 0 c330 0 646 20 685 43 35 20 52 62 44
107 -10 51 -39 73 -105 80 -112 12 -131 34 -142 168 -7 81 -13 376 -10 494 l1
41 88 7 c210 17 393 68 524 146 95 57 152 109 213 194 123 174 155 319 154
715 -1 124 2 243 6 265 10 55 47 101 105 130 84 43 111 105 75 174 -21 41 -63
55 -145 47 -117 -10 -245 -71 -316 -148 -150 -163 -185 -295 -184 -707 1 -115
-4 -208 -11 -237 -39 -158 -135 -266 -269 -302 -58 -15 -165 -32 -208 -32
l-33 0 3 553 c3 490 5 556 20 589 19 43 53 63 123 73 68 11 95 40 95 103 0 53
-22 87 -63 97 -12 3 -201 4 -419 3 -386 -3 -398 -4 -418 -24 -26 -26 -36 -85
-21 -123 14 -31 39 -46 109 -62 64 -14 90 -33 112 -82 17 -37 19 -72 21 -302
1 -261 1 -800 0 -821 -1 -6 -13 -10 -28 -9 -16 2 -64 6 -108 10 -160 13 -265
71 -330 182 -51 86 -56 126 -64 453 -7 280 -9 310 -30 370 -38 110 -82 182
-156 255 -126 127 -325 197 -430 151z"/>
</g>
</svg>
