<svg width="216" height="21" viewBox="0 0 216 21" fill="none" xmlns="http://www.w3.org/2000/svg">
<path d="M0.207386 20.0909V5.09091H3.19034V6.9233H3.32528C3.45786 6.62973 3.64962 6.33144 3.90057 6.02841C4.15625 5.72064 4.48769 5.46496 4.89489 5.26136C5.30682 5.05303 5.81818 4.94886 6.42898 4.94886C7.22443 4.94886 7.95833 5.1572 8.63068 5.57386C9.30303 5.9858 9.84044 6.60843 10.2429 7.44176C10.6454 8.27036 10.8466 9.30966 10.8466 10.5597C10.8466 11.7765 10.6501 12.804 10.2571 13.642C9.86884 14.4754 9.33854 15.1075 8.66619 15.5384C7.99858 15.9645 7.25047 16.1776 6.42188 16.1776C5.83475 16.1776 5.33523 16.0805 4.9233 15.8864C4.5161 15.6922 4.18229 15.4484 3.92188 15.1548C3.66146 14.8565 3.46259 14.5559 3.32528 14.2528H3.23295V20.0909H0.207386ZM3.16903 10.5455C3.16903 11.1941 3.259 11.7599 3.43892 12.2429C3.61884 12.7259 3.87926 13.1023 4.22017 13.3722C4.56108 13.6373 4.97538 13.7699 5.46307 13.7699C5.95549 13.7699 6.37216 13.6349 6.71307 13.3651C7.05398 13.0904 7.31203 12.7116 7.48722 12.2287C7.66714 11.741 7.7571 11.1799 7.7571 10.5455C7.7571 9.91572 7.66951 9.36174 7.49432 8.88352C7.31913 8.4053 7.06108 8.03125 6.72017 7.76136C6.37926 7.49148 5.96023 7.35653 5.46307 7.35653C4.97064 7.35653 4.55398 7.48674 4.21307 7.74716C3.87689 8.00758 3.61884 8.37689 3.43892 8.85511C3.259 9.33333 3.16903 9.89678 3.16903 10.5455ZM21.5403 8.2017L18.7705 8.37216C18.7231 8.13542 18.6213 7.92235 18.4651 7.73295C18.3088 7.53883 18.1028 7.38494 17.8472 7.27131C17.5962 7.15294 17.2955 7.09375 16.9452 7.09375C16.4764 7.09375 16.0811 7.19318 15.7591 7.39205C15.4371 7.58617 15.2761 7.84659 15.2761 8.1733C15.2761 8.43371 15.3803 8.65388 15.5886 8.83381C15.797 9.01373 16.1545 9.15814 16.6611 9.26705L18.6355 9.66477C19.6961 9.88258 20.4868 10.233 21.0077 10.7159C21.5285 11.1989 21.7889 11.8333 21.7889 12.6193C21.7889 13.3343 21.5782 13.9616 21.1568 14.5014C20.7402 15.0412 20.1672 15.4626 19.4381 15.7656C18.7136 16.0639 17.8779 16.2131 16.931 16.2131C15.4868 16.2131 14.3363 15.9124 13.4793 15.3111C12.627 14.705 12.1275 13.8812 11.9807 12.8395L14.9565 12.6832C15.0465 13.1236 15.2643 13.4598 15.6099 13.6918C15.9556 13.919 16.3983 14.0327 16.9381 14.0327C17.4684 14.0327 17.8945 13.9309 18.2165 13.7273C18.5432 13.5189 18.7089 13.2514 18.7136 12.9247C18.7089 12.6501 18.5929 12.4252 18.3656 12.25C18.1384 12.0701 17.788 11.9328 17.3145 11.8381L15.4253 11.4616C14.3599 11.2486 13.5669 10.8793 13.046 10.3537C12.5299 9.82812 12.2719 9.15814 12.2719 8.34375C12.2719 7.64299 12.4613 7.0393 12.8401 6.53267C13.2236 6.02604 13.761 5.63542 14.4523 5.3608C15.1483 5.08617 15.9627 4.94886 16.8955 4.94886C18.2733 4.94886 19.3576 5.24006 20.1483 5.82244C20.9438 6.40483 21.4078 7.19792 21.5403 8.2017ZM25.162 20.0909C24.7785 20.0909 24.4186 20.0601 24.0825 19.9986C23.751 19.9418 23.4764 19.8684 23.2586 19.7784L23.9404 17.5199C24.2955 17.6288 24.6151 17.688 24.8992 17.6974C25.188 17.7069 25.4366 17.6406 25.645 17.4986C25.858 17.3565 26.0308 17.1151 26.1634 16.7741L26.341 16.3125L22.4276 5.09091H25.6094L27.868 13.1023H27.9816L30.2614 5.09091H33.4646L29.2245 17.179C29.0209 17.7661 28.7439 18.2775 28.3935 18.7131C28.0479 19.1534 27.6099 19.492 27.0796 19.7287C26.5493 19.9702 25.9101 20.0909 25.162 20.0909ZM39.1903 16.2131C38.0728 16.2131 37.1117 15.9763 36.3067 15.5028C35.5066 15.0246 34.891 14.3617 34.4602 13.5142C34.034 12.6667 33.821 11.6913 33.821 10.5881C33.821 9.47064 34.0364 8.49053 34.4673 7.64773C34.9029 6.80019 35.5208 6.13968 36.321 5.66619C37.1211 5.18797 38.0728 4.94886 39.1761 4.94886C40.1278 4.94886 40.9611 5.12169 41.6761 5.46733C42.391 5.81297 42.9568 6.2983 43.3735 6.9233C43.7902 7.5483 44.0198 8.2822 44.0624 9.125H41.2073C41.1268 8.58049 40.9138 8.14252 40.5681 7.81108C40.2272 7.47491 39.7798 7.30682 39.2258 7.30682C38.757 7.30682 38.3475 7.43466 37.9971 7.69034C37.6514 7.94129 37.3816 8.30824 37.1874 8.79119C36.9933 9.27415 36.8962 9.8589 36.8962 10.5455C36.8962 11.2415 36.9909 11.8333 37.1803 12.321C37.3745 12.8087 37.6467 13.1804 37.9971 13.4361C38.3475 13.6918 38.757 13.8196 39.2258 13.8196C39.5714 13.8196 39.8816 13.7486 40.1562 13.6065C40.4355 13.4645 40.6652 13.2585 40.8451 12.9886C41.0298 12.714 41.1505 12.3849 41.2073 12.0014H44.0624C44.0151 12.8348 43.7878 13.5687 43.3806 14.2031C42.9781 14.8329 42.4218 15.3253 41.7116 15.6804C41.0013 16.0355 40.1609 16.2131 39.1903 16.2131ZM48.6251 9.69318V16H45.5996V1.45455H48.5399V7.01562H48.6678C48.914 6.37169 49.3117 5.86742 49.8609 5.50284C50.4102 5.13352 51.0991 4.94886 51.9277 4.94886C52.6853 4.94886 53.3458 5.11458 53.9092 5.44602C54.4774 5.77273 54.9178 6.24384 55.2303 6.85938C55.5475 7.47017 55.7037 8.2017 55.699 9.05398V16H52.6734V9.59375C52.6782 8.9214 52.5077 8.3982 52.1621 8.02415C51.8212 7.65009 51.3429 7.46307 50.7274 7.46307C50.3155 7.46307 49.9509 7.55066 49.6337 7.72585C49.3212 7.90104 49.075 8.15672 48.895 8.4929C48.7198 8.82434 48.6299 9.22443 48.6251 9.69318ZM62.609 16.2131C61.5058 16.2131 60.5517 15.9787 59.7468 15.5099C58.9466 15.0365 58.3287 14.3783 57.8931 13.5355C57.4575 12.688 57.2397 11.7055 57.2397 10.5881C57.2397 9.46117 57.4575 8.47633 57.8931 7.63352C58.3287 6.78598 58.9466 6.12784 59.7468 5.65909C60.5517 5.18561 61.5058 4.94886 62.609 4.94886C63.7122 4.94886 64.6639 5.18561 65.4641 5.65909C66.2691 6.12784 66.8893 6.78598 67.3249 7.63352C67.7605 8.47633 67.9783 9.46117 67.9783 10.5881C67.9783 11.7055 67.7605 12.688 67.3249 13.5355C66.8893 14.3783 66.2691 15.0365 65.4641 15.5099C64.6639 15.9787 63.7122 16.2131 62.609 16.2131ZM62.6232 13.8693C63.1251 13.8693 63.5442 13.7273 63.8803 13.4432C64.2165 13.1544 64.4698 12.7614 64.6403 12.2642C64.8155 11.767 64.9031 11.2012 64.9031 10.5668C64.9031 9.93229 64.8155 9.36648 64.6403 8.86932C64.4698 8.37216 64.2165 7.97917 63.8803 7.69034C63.5442 7.40151 63.1251 7.2571 62.6232 7.2571C62.1166 7.2571 61.6905 7.40151 61.3448 7.69034C61.0039 7.97917 60.7459 8.37216 60.5707 8.86932C60.4002 9.36648 60.315 9.93229 60.315 10.5668C60.315 11.2012 60.4002 11.767 60.5707 12.2642C60.7459 12.7614 61.0039 13.1544 61.3448 13.4432C61.6905 13.7273 62.1166 13.8693 62.6232 13.8693ZM72.5712 1.45455V16H69.5457V1.45455H72.5712ZM79.5239 16.2131C78.4206 16.2131 77.4666 15.9787 76.6616 15.5099C75.8615 15.0365 75.2436 14.3783 74.808 13.5355C74.3723 12.688 74.1545 11.7055 74.1545 10.5881C74.1545 9.46117 74.3723 8.47633 74.808 7.63352C75.2436 6.78598 75.8615 6.12784 76.6616 5.65909C77.4666 5.18561 78.4206 4.94886 79.5239 4.94886C80.6271 4.94886 81.5788 5.18561 82.379 5.65909C83.1839 6.12784 83.8042 6.78598 84.2398 7.63352C84.6754 8.47633 84.8932 9.46117 84.8932 10.5881C84.8932 11.7055 84.6754 12.688 84.2398 13.5355C83.8042 14.3783 83.1839 15.0365 82.379 15.5099C81.5788 15.9787 80.6271 16.2131 79.5239 16.2131ZM79.5381 13.8693C80.04 13.8693 80.459 13.7273 80.7952 13.4432C81.1313 13.1544 81.3847 12.7614 81.5551 12.2642C81.7303 11.767 81.8179 11.2012 81.8179 10.5668C81.8179 9.93229 81.7303 9.36648 81.5551 8.86932C81.3847 8.37216 81.1313 7.97917 80.7952 7.69034C80.459 7.40151 80.04 7.2571 79.5381 7.2571C79.0314 7.2571 78.6053 7.40151 78.2597 7.69034C77.9187 7.97917 77.6607 8.37216 77.4855 8.86932C77.3151 9.36648 77.2298 9.93229 77.2298 10.5668C77.2298 11.2012 77.3151 11.767 77.4855 12.2642C77.6607 12.7614 77.9187 13.1544 78.2597 13.4432C78.6053 13.7273 79.0314 13.8693 79.5381 13.8693ZM91.3753 20.3182C90.3952 20.3182 89.5547 20.1832 88.854 19.9134C88.158 19.6482 87.604 19.286 87.192 18.8267C86.7801 18.3674 86.5126 17.8513 86.3895 17.2784L89.1878 16.902C89.273 17.1198 89.408 17.3234 89.5926 17.5128C89.7773 17.7022 90.0211 17.8537 90.3242 17.9673C90.6319 18.0857 91.006 18.1449 91.4463 18.1449C92.1045 18.1449 92.6466 17.9839 93.0727 17.6619C93.5036 17.3447 93.719 16.812 93.719 16.0639V14.0682H93.5912C93.4586 14.3712 93.2598 14.6577 92.9946 14.9276C92.7295 15.1974 92.3885 15.4176 91.9719 15.5881C91.5552 15.7585 91.0581 15.8438 90.4804 15.8438C89.6613 15.8438 88.9155 15.6544 88.2432 15.2756C87.5756 14.892 87.0429 14.3073 86.6452 13.5213C86.2522 12.7306 86.0557 11.7315 86.0557 10.5241C86.0557 9.28835 86.2569 8.25616 86.6594 7.42756C87.0618 6.59896 87.5969 5.97869 88.2645 5.56676C88.9368 5.15483 89.6731 4.94886 90.4733 4.94886C91.0841 4.94886 91.5955 5.05303 92.0074 5.26136C92.4193 5.46496 92.7508 5.72064 93.0017 6.02841C93.2574 6.33144 93.4539 6.62973 93.5912 6.9233H93.7048V5.09091H96.7091V16.1065C96.7091 17.0346 96.4818 17.8111 96.0273 18.4361C95.5727 19.0611 94.943 19.5298 94.1381 19.8423C93.3379 20.1596 92.417 20.3182 91.3753 20.3182ZM91.4392 13.571C91.9269 13.571 92.3388 13.4503 92.675 13.2088C93.0159 12.9626 93.2763 12.6122 93.4563 12.1577C93.6409 11.6984 93.7332 11.1491 93.7332 10.5099C93.7332 9.87074 93.6433 9.31676 93.4634 8.84801C93.2834 8.37453 93.023 8.00758 92.6821 7.74716C92.3412 7.48674 91.9269 7.35653 91.4392 7.35653C90.942 7.35653 90.523 7.49148 90.1821 7.76136C89.8412 8.02651 89.5831 8.39583 89.408 8.86932C89.2328 9.3428 89.1452 9.88968 89.1452 10.5099C89.1452 11.1397 89.2328 11.6842 89.408 12.1435C89.5879 12.598 89.8459 12.9508 90.1821 13.2017C90.523 13.4479 90.942 13.571 91.4392 13.571ZM98.7168 16V5.09091H101.742V16H98.7168ZM100.237 3.68466C99.7868 3.68466 99.4009 3.53551 99.079 3.23722C98.7617 2.93419 98.6031 2.57197 98.6031 2.15057C98.6031 1.7339 98.7617 1.37642 99.079 1.07812C99.4009 0.775094 99.7868 0.623579 100.237 0.623579C100.686 0.623579 101.07 0.775094 101.387 1.07812C101.709 1.37642 101.87 1.7339 101.87 2.15057C101.87 2.57197 101.709 2.93419 101.387 3.23722C101.07 3.53551 100.686 3.68466 100.237 3.68466ZM112.843 8.2017L110.073 8.37216C110.025 8.13542 109.924 7.92235 109.767 7.73295C109.611 7.53883 109.405 7.38494 109.15 7.27131C108.899 7.15294 108.598 7.09375 108.248 7.09375C107.779 7.09375 107.383 7.19318 107.061 7.39205C106.739 7.58617 106.578 7.84659 106.578 8.1733C106.578 8.43371 106.683 8.65388 106.891 8.83381C107.099 9.01373 107.457 9.15814 107.963 9.26705L109.938 9.66477C110.998 9.88258 111.789 10.233 112.31 10.7159C112.831 11.1989 113.091 11.8333 113.091 12.6193C113.091 13.3343 112.881 13.9616 112.459 14.5014C112.042 15.0412 111.47 15.4626 110.74 15.7656C110.016 16.0639 109.18 16.2131 108.233 16.2131C106.789 16.2131 105.639 15.9124 104.782 15.3111C103.929 14.705 103.43 13.8812 103.283 12.8395L106.259 12.6832C106.349 13.1236 106.567 13.4598 106.912 13.6918C107.258 13.919 107.701 14.0327 108.24 14.0327C108.771 14.0327 109.197 13.9309 109.519 13.7273C109.846 13.5189 110.011 13.2514 110.016 12.9247C110.011 12.6501 109.895 12.4252 109.668 12.25C109.441 12.0701 109.09 11.9328 108.617 11.8381L106.728 11.4616C105.662 11.2486 104.869 10.8793 104.348 10.3537C103.832 9.82812 103.574 9.15814 103.574 8.34375C103.574 7.64299 103.764 7.0393 104.142 6.53267C104.526 6.02604 105.063 5.63542 105.755 5.3608C106.451 5.08617 107.265 4.94886 108.198 4.94886C109.576 4.94886 110.66 5.24006 111.451 5.82244C112.246 6.40483 112.71 7.19792 112.843 8.2017ZM120.399 5.09091V7.36364H113.829V5.09091H120.399ZM115.321 2.47727H118.346V12.6477C118.346 12.9271 118.389 13.1449 118.474 13.3011C118.56 13.4527 118.678 13.5592 118.829 13.6207C118.986 13.6823 119.166 13.7131 119.369 13.7131C119.511 13.7131 119.653 13.7012 119.795 13.6776C119.937 13.6491 120.046 13.6278 120.122 13.6136L120.598 15.8651C120.446 15.9124 120.233 15.9669 119.959 16.0284C119.684 16.0947 119.35 16.1349 118.957 16.1491C118.228 16.1776 117.589 16.0805 117.04 15.858C116.495 15.6354 116.071 15.2898 115.768 14.821C115.465 14.3523 115.316 13.7604 115.321 13.0455V2.47727ZM130.91 8.2017L128.14 8.37216C128.093 8.13542 127.991 7.92235 127.835 7.73295C127.678 7.53883 127.472 7.38494 127.217 7.27131C126.966 7.15294 126.665 7.09375 126.315 7.09375C125.846 7.09375 125.451 7.19318 125.129 7.39205C124.807 7.58617 124.646 7.84659 124.646 8.1733C124.646 8.43371 124.75 8.65388 124.958 8.83381C125.166 9.01373 125.524 9.15814 126.031 9.26705L128.005 9.66477C129.066 9.88258 129.856 10.233 130.377 10.7159C130.898 11.1989 131.158 11.8333 131.158 12.6193C131.158 13.3343 130.948 13.9616 130.526 14.5014C130.11 15.0412 129.537 15.4626 128.808 15.7656C128.083 16.0639 127.247 16.2131 126.3 16.2131C124.856 16.2131 123.706 15.9124 122.849 15.3111C121.997 14.705 121.497 13.8812 121.35 12.8395L124.326 12.6832C124.416 13.1236 124.634 13.4598 124.979 13.6918C125.325 13.919 125.768 14.0327 126.308 14.0327C126.838 14.0327 127.264 13.9309 127.586 13.7273C127.913 13.5189 128.078 13.2514 128.083 12.9247C128.078 12.6501 127.962 12.4252 127.735 12.25C127.508 12.0701 127.158 11.9328 126.684 11.8381L124.795 11.4616C123.729 11.2486 122.936 10.8793 122.416 10.3537C121.899 9.82812 121.641 9.15814 121.641 8.34375C121.641 7.64299 121.831 7.0393 122.21 6.53267C122.593 6.02604 123.131 5.63542 123.822 5.3608C124.518 5.08617 125.332 4.94886 126.265 4.94886C127.643 4.94886 128.727 5.24006 129.518 5.82244C130.313 6.40483 130.777 7.19792 130.91 8.2017ZM134.283 16.1349C133.895 16.1349 133.561 15.9976 133.282 15.723C133.002 15.4437 132.863 15.1075 132.863 14.7145C132.863 14.3262 133.002 13.9948 133.282 13.7202C133.561 13.4408 133.895 13.3011 134.283 13.3011C134.671 13.3011 135.005 13.4408 135.284 13.7202C135.564 13.9948 135.703 14.3262 135.703 14.7145C135.703 14.9749 135.637 15.214 135.505 15.4318C135.377 15.6449 135.206 15.8153 134.993 15.9432C134.78 16.071 134.543 16.1349 134.283 16.1349Z" fill="#54BE96"/>
<path d="M146.663 7.97443L144.32 8.23011C144.253 7.99337 144.137 7.77083 143.972 7.5625C143.811 7.35417 143.593 7.18608 143.318 7.05824C143.044 6.9304 142.708 6.86648 142.31 6.86648C141.775 6.86648 141.325 6.98248 140.96 7.21449C140.601 7.4465 140.423 7.74716 140.428 8.11648C140.423 8.43371 140.539 8.69176 140.776 8.89062C141.017 9.08949 141.415 9.25284 141.969 9.38068L143.83 9.77841C144.862 10.0009 145.629 10.3537 146.131 10.8366C146.637 11.3196 146.893 11.9517 146.898 12.733C146.893 13.4195 146.692 14.0256 146.294 14.5511C145.901 15.072 145.354 15.4792 144.654 15.7727C143.953 16.0663 143.148 16.2131 142.239 16.2131C140.904 16.2131 139.829 15.9337 139.014 15.375C138.2 14.8116 137.715 14.0279 137.558 13.0241L140.065 12.7827C140.179 13.2751 140.421 13.6468 140.79 13.8977C141.159 14.1487 141.64 14.2741 142.232 14.2741C142.842 14.2741 143.333 14.1487 143.702 13.8977C144.076 13.6468 144.263 13.3366 144.263 12.9673C144.263 12.6548 144.142 12.3968 143.901 12.1932C143.664 11.9896 143.295 11.8333 142.793 11.7244L140.932 11.3338C139.886 11.116 139.111 10.7491 138.61 10.233C138.108 9.71212 137.859 9.05398 137.864 8.25852C137.859 7.58617 138.041 7.00379 138.411 6.51136C138.785 6.0142 139.303 5.63068 139.966 5.3608C140.634 5.08617 141.403 4.94886 142.274 4.94886C143.553 4.94886 144.559 5.22112 145.293 5.76562C146.031 6.31013 146.488 7.0464 146.663 7.97443ZM153.447 16.2131C152.354 16.2131 151.409 15.9858 150.614 15.5312C149.823 15.072 149.214 14.4233 148.788 13.5852C148.362 12.7424 148.149 11.7505 148.149 10.6094C148.149 9.48722 148.362 8.50237 148.788 7.65483C149.219 6.80256 149.821 6.13968 150.592 5.66619C151.364 5.18797 152.271 4.94886 153.312 4.94886C153.985 4.94886 154.619 5.05777 155.216 5.27557C155.817 5.48864 156.348 5.82008 156.807 6.26989C157.271 6.7197 157.635 7.29261 157.901 7.98864C158.166 8.67992 158.298 9.50379 158.298 10.4602V11.2486H149.357V9.51562H155.834C155.829 9.0232 155.723 8.58523 155.514 8.2017C155.306 7.81345 155.015 7.50805 154.641 7.28551C154.271 7.06297 153.84 6.9517 153.348 6.9517C152.822 6.9517 152.361 7.07955 151.963 7.33523C151.565 7.58617 151.255 7.91761 151.033 8.32955C150.815 8.73674 150.704 9.18419 150.699 9.67188V11.1847C150.699 11.8191 150.815 12.3636 151.047 12.8182C151.279 13.268 151.603 13.6136 152.02 13.8551C152.437 14.0919 152.924 14.2102 153.483 14.2102C153.857 14.2102 154.196 14.1581 154.499 14.054C154.802 13.9451 155.064 13.7865 155.287 13.5781C155.509 13.3698 155.678 13.1117 155.791 12.804L158.192 13.0739C158.04 13.7083 157.751 14.2623 157.325 14.7358C156.904 15.2045 156.364 15.5691 155.706 15.8295C155.048 16.0852 154.295 16.2131 153.447 16.2131ZM160.073 16V5.09091H162.566V6.90909H162.68C162.879 6.27936 163.22 5.79403 163.703 5.45312C164.19 5.10748 164.747 4.93466 165.372 4.93466C165.514 4.93466 165.672 4.94176 165.848 4.95597C166.027 4.96544 166.177 4.98201 166.295 5.00568V7.37074C166.186 7.33286 166.013 7.29972 165.776 7.27131C165.544 7.23816 165.32 7.22159 165.102 7.22159C164.633 7.22159 164.212 7.32339 163.838 7.52699C163.468 7.72585 163.177 8.00284 162.964 8.35795C162.751 8.71307 162.644 9.12263 162.644 9.58665V16H160.073ZM177.679 5.09091L173.794 16H170.954L167.069 5.09091H169.81L172.317 13.1946H172.431L174.945 5.09091H177.679ZM179.059 16V5.09091H181.63V16H179.059ZM180.351 3.54261C179.944 3.54261 179.594 3.40767 179.3 3.13778C179.006 2.86316 178.86 2.53409 178.86 2.15057C178.86 1.76231 179.006 1.43324 179.3 1.16335C179.594 0.88873 179.944 0.75142 180.351 0.75142C180.763 0.75142 181.113 0.88873 181.402 1.16335C181.696 1.43324 181.843 1.76231 181.843 2.15057C181.843 2.53409 181.696 2.86316 181.402 3.13778C181.113 3.40767 180.763 3.54261 180.351 3.54261ZM188.632 16.2131C187.543 16.2131 186.608 15.974 185.826 15.4957C185.05 15.0175 184.451 14.357 184.03 13.5142C183.613 12.6667 183.405 11.6913 183.405 10.5881C183.405 9.48011 183.618 8.50237 184.044 7.65483C184.47 6.80256 185.071 6.13968 185.848 5.66619C186.629 5.18797 187.552 4.94886 188.618 4.94886C189.503 4.94886 190.287 5.11222 190.969 5.43892C191.655 5.76089 192.202 6.2178 192.609 6.80966C193.016 7.39678 193.248 8.08333 193.305 8.86932H190.848C190.748 8.34375 190.512 7.90578 190.138 7.5554C189.768 7.20028 189.273 7.02273 188.653 7.02273C188.128 7.02273 187.666 7.16477 187.268 7.44886C186.871 7.72822 186.56 8.13068 186.338 8.65625C186.12 9.18182 186.011 9.81155 186.011 10.5455C186.011 11.2888 186.12 11.928 186.338 12.4631C186.556 12.9934 186.861 13.4029 187.254 13.6918C187.652 13.9759 188.118 14.1179 188.653 14.1179C189.032 14.1179 189.371 14.0469 189.669 13.9048C189.972 13.758 190.225 13.5473 190.429 13.2727C190.632 12.9981 190.772 12.6643 190.848 12.2713H193.305C193.244 13.0431 193.016 13.7273 192.623 14.3239C192.23 14.9157 191.695 15.3797 191.018 15.7159C190.341 16.0473 189.546 16.2131 188.632 16.2131ZM199.846 16.2131C198.752 16.2131 197.808 15.9858 197.012 15.5312C196.221 15.072 195.613 14.4233 195.187 13.5852C194.761 12.7424 194.548 11.7505 194.548 10.6094C194.548 9.48722 194.761 8.50237 195.187 7.65483C195.618 6.80256 196.219 6.13968 196.991 5.66619C197.763 5.18797 198.669 4.94886 199.711 4.94886C200.383 4.94886 201.018 5.05777 201.614 5.27557C202.216 5.48864 202.746 5.82008 203.205 6.26989C203.669 6.7197 204.034 7.29261 204.299 7.98864C204.564 8.67992 204.697 9.50379 204.697 10.4602V11.2486H195.755V9.51562H202.232C202.228 9.0232 202.121 8.58523 201.913 8.2017C201.704 7.81345 201.413 7.50805 201.039 7.28551C200.67 7.06297 200.239 6.9517 199.746 6.9517C199.221 6.9517 198.759 7.07955 198.362 7.33523C197.964 7.58617 197.654 7.91761 197.431 8.32955C197.213 8.73674 197.102 9.18419 197.097 9.67188V11.1847C197.097 11.8191 197.213 12.3636 197.445 12.8182C197.677 13.268 198.002 13.6136 198.418 13.8551C198.835 14.0919 199.323 14.2102 199.881 14.2102C200.255 14.2102 200.594 14.1581 200.897 14.054C201.2 13.9451 201.463 13.7865 201.685 13.5781C201.908 13.3698 202.076 13.1117 202.19 12.804L204.59 13.0739C204.439 13.7083 204.15 14.2623 203.724 14.7358C203.302 15.2045 202.763 15.5691 202.104 15.8295C201.446 16.0852 200.693 16.2131 199.846 16.2131ZM215.094 7.97443L212.75 8.23011C212.684 7.99337 212.568 7.77083 212.402 7.5625C212.241 7.35417 212.023 7.18608 211.749 7.05824C211.474 6.9304 211.138 6.86648 210.74 6.86648C210.205 6.86648 209.755 6.98248 209.391 7.21449C209.031 7.4465 208.853 7.74716 208.858 8.11648C208.853 8.43371 208.969 8.69176 209.206 8.89062C209.448 9.08949 209.845 9.25284 210.399 9.38068L212.26 9.77841C213.292 10.0009 214.059 10.3537 214.561 10.8366C215.068 11.3196 215.324 11.9517 215.328 12.733C215.324 13.4195 215.122 14.0256 214.725 14.5511C214.332 15.072 213.785 15.4792 213.084 15.7727C212.383 16.0663 211.578 16.2131 210.669 16.2131C209.334 16.2131 208.259 15.9337 207.445 15.375C206.63 14.8116 206.145 14.0279 205.989 13.0241L208.496 12.7827C208.61 13.2751 208.851 13.6468 209.22 13.8977C209.59 14.1487 210.07 14.2741 210.662 14.2741C211.273 14.2741 211.763 14.1487 212.132 13.8977C212.506 13.6468 212.693 13.3366 212.693 12.9673C212.693 12.6548 212.573 12.3968 212.331 12.1932C212.094 11.9896 211.725 11.8333 211.223 11.7244L209.362 11.3338C208.316 11.116 207.542 10.7491 207.04 10.233C206.538 9.71212 206.29 9.05398 206.294 8.25852C206.29 7.58617 206.472 7.00379 206.841 6.51136C207.215 6.0142 207.734 5.63068 208.397 5.3608C209.064 5.08617 209.834 4.94886 210.705 4.94886C211.983 4.94886 212.989 5.22112 213.723 5.76562C214.462 6.31013 214.919 7.0464 215.094 7.97443Z" fill="#191A15"/>
</svg>
