<svg width="0" height="0" class="hidden">
  <symbol xmlns="http://www.w3.org/2000/svg" x="0px" y="0px" viewBox="0 0 50 50" id="burger">
    <path d="M 5 8 A 2.0002 2.0002 0 1 0 5 12 L 45 12 A 2.0002 2.0002 0 1 0 45 8 L 5 8 z M 5 23 A 2.0002 2.0002 0 1 0 5 27 L 45 27 A 2.0002 2.0002 0 1 0 45 23 L 5 23 z M 5 38 A 2.0002 2.0002 0 1 0 5 42 L 45 42 A 2.0002 2.0002 0 1 0 45 38 L 5 38 z"></path>
  </symbol>
  <symbol fill="none" xmlns="http://www.w3.org/2000/svg" viewBox="0 0 20 20" id="chevron-up">
    <path d="M5 12.5L10 7.5L15 12.5" stroke="#FBFBFB" stroke-width="2" stroke-linecap="round" stroke-linejoin="round"></path>
  </symbol>
  <symbol fill="none" xmlns="http://www.w3.org/2000/svg" viewBox="0 0 20 20" id="chevron-down">
    <path d="M5 7.5L10 12.5L15 7.5" stroke="#FBFBFB" stroke-width="2" stroke-linecap="round" stroke-linejoin="round"></path>
  </symbol>
  <symbol fill="none" xmlns="http://www.w3.org/2000/svg" viewBox="0 0 32 32" id="x">
    <path d="M24 8L8 24" stroke="#191A15" stroke-width="2.5" stroke-linecap="round" stroke-linejoin="round"></path>
    <path d="M8 8L24 24" stroke="#191A15" stroke-width="2.5" stroke-linecap="round" stroke-linejoin="round"></path>
  </symbol>
  <symbol fill="none" xmlns="http://www.w3.org/2000/svg" viewBox="0 0 10 17" id="question-mark">
    <path d="M2.5 5.3125C2.5 4.14043 3.39687 3.1875 4.5 3.1875H5.5C6.60313 3.1875 7.5 4.14043 7.5 5.3125V5.43203C7.5 6.15586 7.15313 6.82988 6.58125 7.21836L5.2625 8.11817C4.8753 8.38268 4.5568 8.74625 4.33622 9.17554C4.11564 9.60483 4.00003 10.0861 4 10.5752V10.625C4 11.2127 4.44688 11.6875 5 11.6875C5.55312 11.6875 6 11.2127 6 10.625V10.5785C6 10.3063 6.13125 10.0539 6.34375 9.90781L7.6625 9.00801C8.80625 8.22442 9.5 6.87969 9.5 5.43203V5.3125C9.5 2.96504 7.70937 1.0625 5.5 1.0625H4.5C2.29063 1.0625 0.5 2.96504 0.5 5.3125C0.5 5.9002 0.946875 6.375 1.5 6.375C2.05313 6.375 2.5 5.9002 2.5 5.3125ZM5 15.9375C5.33152 15.9375 5.64946 15.7976 5.88388 15.5485C6.1183 15.2994 6.25 14.9616 6.25 14.6094C6.25 14.2571 6.1183 13.9193 5.88388 13.6703C5.64946 13.4212 5.33152 13.2813 5 13.2813C4.66848 13.2813 4.35054 13.4212 4.11612 13.6703C3.8817 13.9193 3.75 14.2571 3.75 14.6094C3.75 14.9616 3.8817 15.2994 4.11612 15.5485C4.35054 15.7976 4.66848 15.9375 5 15.9375Z" fill="#FBFBFB"></path>
  </symbol>
  <symbol fill="none" xmlns="http://www.w3.org/2000/svg" viewBox="0 0 17 16" id="user-double">
    <path d="M11.8771 12.6007L11.4493 14.1973L0.272788 11.2026L0.700607 9.60593C0.700607 9.60593 1.55625 6.41264 7.1445 7.91001C12.7328 9.40738 11.8771 12.6007 11.8771 12.6007ZM11.1151 4.26792C11.2632 3.7153 11.2441 3.13117 11.0602 2.58941C10.8763 2.04766 10.5359 1.5726 10.082 1.22431C9.62807 0.876027 9.08109 0.670159 8.51019 0.632741C7.9393 0.595322 7.37013 0.728034 6.87466 1.01409C6.37919 1.30015 5.97967 1.72672 5.72663 2.23984C5.47358 2.75295 5.37838 3.32959 5.45306 3.89681C5.52774 4.46404 5.76894 4.99638 6.14616 5.42653C6.52339 5.85667 7.01969 6.16529 7.57232 6.31337C8.31337 6.51193 9.10294 6.40798 9.76735 6.02439C10.4318 5.64079 10.9166 5.00897 11.1151 4.26792ZM12.6849 9.39455C13.0739 9.90585 13.3461 10.4962 13.4824 11.124C13.6187 11.7518 13.6157 12.4019 13.4738 13.0285L13.0459 14.6251L16.2392 15.4808L16.667 13.8841C16.667 13.8841 17.4435 10.9862 12.6849 9.39455ZM13.8596 2.00857C13.3109 1.85828 12.7295 1.87856 12.1927 2.06674C12.496 2.87424 12.5391 3.75644 12.3159 4.58966C12.0926 5.42288 11.6142 6.16534 10.9477 6.71297C11.3185 7.14437 11.8119 7.45265 12.3623 7.59683C13.1033 7.79539 13.8929 7.69144 14.5573 7.30784C15.2217 6.92425 15.7065 6.29243 15.9051 5.55138C16.1036 4.81033 15.9997 4.02076 15.6161 3.35635C15.2325 2.69195 14.6007 2.20713 13.8596 2.00857Z" fill="#FBFBFB"></path>
  </symbol>
  <symbol fill="none" xmlns="http://www.w3.org/2000/svg" viewBox="0 0 15 17" id="arrow">
    <path d="M12.8229 1.6731C12.7461 1.12619 12.2404 0.745143 11.6935 0.822006L2.78109 2.07456C2.23418 2.15143 1.85313 2.6571 1.92999 3.20401C2.00685 3.75092 2.51252 4.13196 3.05943 4.0551L10.9816 2.94172L12.095 10.8639C12.1718 11.4108 12.6775 11.7918 13.2244 11.715C13.7713 11.6381 14.1524 11.1324 14.0755 10.5855L12.8229 1.6731ZM1.79864 16.7895L12.6313 2.41409L11.034 1.21046L0.201365 15.5859L1.79864 16.7895Z" fill="#FBFBFB"></path>
  </symbol>
  <symbol fill="none" xmlns="http://www.w3.org/2000/svg" viewBox="0 0 20 16" id="tick">
    <path fill-rule="evenodd" clip-rule="evenodd" d="M2.5 5.5L0 8L7.5 15.5L20 3L17.5 0.5L7.5 10.5L2.5 5.5Z" fill="#54BE96"></path>
  </symbol>
  <symbol fill="none" xmlns="http://www.w3.org/2000/svg" viewBox="0 0 20 20" id="clock">
    <g clip-path="url(#clip0_33_527)">
      <path d="M9.99996 18.3333C14.6023 18.3333 18.3333 14.6024 18.3333 10C18.3333 5.39763 14.6023 1.66667 9.99996 1.66667C5.39759 1.66667 1.66663 5.39763 1.66663 10C1.66663 14.6024 5.39759 18.3333 9.99996 18.3333Z" stroke="#191A15" stroke-width="1.5" stroke-linecap="round" stroke-linejoin="round"></path>
      <path d="M10 5V10L13.3333 11.6667" stroke="#191A15" stroke-width="1.5" stroke-linecap="round" stroke-linejoin="round"></path>
    </g>
    <defs>
      <clipPath id="clip0_33_527">
        <rect width="20" height="20" fill="white"></rect>
      </clipPath>
    </defs>
  </symbol>
  <symbol fill="none" xmlns="http://www.w3.org/2000/svg" viewBox="0 0 20 20" id="eye-on">
    <g clip-path="url(#clip0_33_593)">
      <path d="M0.833374 10C0.833374 10 4.16671 3.33334 10 3.33334C15.8334 3.33334 19.1667 10 19.1667 10C19.1667 10 15.8334 16.6667 10 16.6667C4.16671 16.6667 0.833374 10 0.833374 10Z" stroke="#191A15" stroke-width="2" stroke-linecap="round" stroke-linejoin="round"></path>
      <path d="M10 12.5C11.3807 12.5 12.5 11.3807 12.5 10C12.5 8.61929 11.3807 7.5 10 7.5C8.61929 7.5 7.5 8.61929 7.5 10C7.5 11.3807 8.61929 12.5 10 12.5Z" stroke="#191A15" stroke-width="2" stroke-linecap="round" stroke-linejoin="round"></path>
    </g>
    <defs>
      <clipPath id="clip0_33_593">
        <rect width="20" height="20" fill="white"></rect>
      </clipPath>
    </defs>
  </symbol>
  <symbol fill="none" xmlns="http://www.w3.org/2000/svg" viewBox="0 0 20 20" id="eye-off">
    <g clip-path="url(#clip0_33_590)">
      <path d="M14.95 14.95C13.5255 16.0358 11.791 16.6374 10 16.6667C4.16671 16.6667 0.833374 10 0.833374 10C1.86995 8.06825 3.30765 6.38051 5.05004 5.05M8.25004 3.53333C8.82365 3.39907 9.41093 3.33195 10 3.33333C15.8334 3.33333 19.1667 10 19.1667 10C18.6609 10.9463 18.0576 11.8373 17.3667 12.6583M11.7667 11.7667C11.5378 12.0123 11.2618 12.2093 10.9552 12.3459C10.6485 12.4826 10.3175 12.556 9.98178 12.562C9.64611 12.5679 9.31268 12.5061 9.00138 12.3804C8.69009 12.2547 8.40731 12.0675 8.16991 11.8301C7.93252 11.5927 7.74537 11.31 7.61963 10.9987C7.4939 10.6874 7.43215 10.3539 7.43807 10.0183C7.44399 9.68258 7.51747 9.35154 7.65411 9.04487C7.79075 8.73821 7.98775 8.46221 8.23338 8.23333" stroke="#191A15" stroke-width="2" stroke-linecap="round" stroke-linejoin="round"></path>
      <path d="M0.833374 0.833336L19.1667 19.1667" stroke="#191A15" stroke-width="2" stroke-linecap="round" stroke-linejoin="round"></path>
    </g>
    <defs>
      <clipPath id="clip0_33_590">
        <rect width="20" height="20" fill="white"></rect>
      </clipPath>
    </defs>
  </symbol>
  <symbol fill="none" xmlns="http://www.w3.org/2000/svg" viewBox="0 0 16 16" id="user">
    <path d="M8 0C9.06087 0 10.0783 0.421427 10.8284 1.17157C11.5786 1.92172 12 2.93913 12 4C12 5.06087 11.5786 6.07828 10.8284 6.82843C10.0783 7.57857 9.06087 8 8 8C6.93913 8 5.92172 7.57857 5.17157 6.82843C4.42143 6.07828 4 5.06087 4 4C4 2.93913 4.42143 1.92172 5.17157 1.17157C5.92172 0.421427 6.93913 0 8 0ZM8 10C12.42 10 16 11.79 16 14V16H0V14C0 11.79 3.58 10 8 10Z" fill="#FBFBFB"></path>
  </symbol>
  <symbol fill="none" xmlns="http://www.w3.org/2000/svg" viewBox="0 0 26 22" id="hearth-filled">
    <path d="M22.5766 2.99417C22.0233 2.44059 21.3663 2.00145 20.6433 1.70184C19.9202 1.40223 19.1452 1.24802 18.3625 1.24802C17.5798 1.24802 16.8047 1.40223 16.0817 1.70184C15.3586 2.00145 14.7016 2.44059 14.1483 2.99417L13 4.1425L11.8516 2.99417C10.734 1.8765 9.21809 1.2486 7.63747 1.2486C6.05685 1.2486 4.54097 1.8765 3.4233 2.99417C2.30563 4.11183 1.67773 5.62772 1.67773 7.20833C1.67773 8.78895 2.30563 10.3048 3.4233 11.4225L4.57163 12.5708L13 20.9992L21.4283 12.5708L22.5766 11.4225C23.1302 10.8692 23.5693 10.2122 23.869 9.48914C24.1686 8.76606 24.3228 7.99103 24.3228 7.20833C24.3228 6.42564 24.1686 5.65061 23.869 4.92753C23.5693 4.20445 23.1302 3.54749 22.5766 2.99417Z" fill="#54BE96" stroke="#54BE96" stroke-width="2" stroke-linecap="round" stroke-linejoin="round"></path>
  </symbol>
  <symbol fill="none" xmlns="http://www.w3.org/2000/svg" viewBox="0 0 26 22" id="hearth-empty">
    <path d="M22.5766 2.99416C22.0233 2.44058 21.3663 2.00144 20.6433 1.70184C19.9202 1.40223 19.1452 1.24802 18.3625 1.24802C17.5798 1.24802 16.8047 1.40223 16.0817 1.70184C15.3586 2.00144 14.7016 2.44058 14.1483 2.99416L13 4.14249L11.8516 2.99416C10.734 1.87649 9.21809 1.2486 7.63747 1.2486C6.05685 1.2486 4.54097 1.87649 3.4233 2.99416C2.30563 4.11183 1.67773 5.62771 1.67773 7.20833C1.67773 8.78895 2.30563 10.3048 3.4233 11.4225L4.57163 12.5708L13 20.9992L21.4283 12.5708L22.5766 11.4225C23.1302 10.8692 23.5693 10.2122 23.869 9.48913C24.1686 8.76605 24.3228 7.99102 24.3228 7.20833C24.3228 6.42563 24.1686 5.65061 23.869 4.92753C23.5693 4.20445 23.1302 3.54748 22.5766 2.99416Z" stroke="#191A15" stroke-width="2" stroke-linecap="round" stroke-linejoin="round"></path>
  </symbol>
  <symbol fill="none" xmlns="http://www.w3.org/2000/svg" viewBox="0 0 16 16" id="star">
    <g clip-path="url(#clip0_33_570)">
      <path d="M9.7998 4.69727C9.93918 4.96131 10.1789 5.15595 10.4619 5.23926L10.585 5.26758L14.3848 5.92383L11.6973 8.69141C11.4895 8.9053 11.3788 9.19279 11.3867 9.4873L11.3975 9.61426L11.9463 13.4316L8.48535 11.7305L8.36816 11.6807C8.13008 11.5961 7.86992 11.5961 7.63184 11.6807L7.51465 11.7305L4.05273 13.4316L4.60254 9.61426C4.64501 9.31888 4.56551 9.02085 4.38574 8.78711L4.30273 8.69141L1.61426 5.92383L5.41504 5.26758C5.70911 5.21664 5.96806 5.04894 6.13477 4.80566L6.2002 4.69727L8 1.28613L9.7998 4.69727Z" fill="#FFC531" stroke="#FFC531" stroke-width="1.2"></path>
    </g>
    <defs>
      <clipPath id="clip0_33_570">
        <rect width="16" height="16" fill="white"></rect>
      </clipPath>
    </defs>
  </symbol>
</svg>